<svg version="1.1" viewBox="0 0 1920 1080" xmlns="http://www.w3.org/2000/svg">
 <g>
  <rect width="1920" height="1080" fill="#631"/>
  <path d="m326.71 751.5c-32.487 0.12339-64.926 12.385-89.778 36.751l16.243 16.189c40.685-39.719 106.08-39.921 147.01-0.40588l16.59-16.466c-25.04-24.176-57.574-36.192-90.062-36.068zm0.0276 34.832c-23.558 0.0895-47.077 8.9812-65.098 26.65l16.371 16.318c27.015-26.452 70.496-26.609 97.703-0.34131l16.334-16.475c-18.158-17.531-41.751-26.241-65.309-26.152zm-0.0365 34.685c-14.667 0.0557-29.318 5.5948-40.538 16.595l15.648 15.59c13.816-13.526 36.05-13.599 49.963-0.16605l15.584-15.737c-11.305-10.915-25.99-16.337-40.657-16.281zm1.7827 34.06a22.987 23.172 0 0 0-17.874 6.7478 22.987 23.172 0 0 0 0.0169 32.753l16.254-16.385-16.187 16.453a22.987 23.172 0 0 0 32.491-0.11877 22.987 23.172 0 0 0-0.0837-32.754 22.987 23.172 0 0 0-14.617-6.6965z" color="#000000" fill="#420"/>
  <path d="m490.19 448.49c-5.8038 0.45676-10.167 5.522-9.7095 11.337l2.8154 35.773c0.45764 5.8149 5.5597 10.135 11.363 9.6785l181.44-14.28c5.7927-0.4559 10.152-5.5209 9.6943-11.336l-2.8154-35.773c-0.45764-5.8149-5.5631-10.135-11.348-9.6797zm9.379 11.282c3.593-0.28278 6.7154 2.3947 6.997 5.9729 0.28278 3.593-2.3833 6.7145-5.9763 6.9973-3.5856 0.2822-6.7199-2.3866-7.0024-5.9759-0.2816-3.5781 2.396-6.7121 5.9817-6.9943zm111.31 7.7937 45.838-3.6076 1.1982 15.224-45.835 3.6073zm-115.76 43.491c-5.8038 0.45677-10.167 5.5305-9.7089 11.345l2.8151 35.77c0.45706 5.8075 5.56 10.139 11.364 9.6819l181.44-14.28c5.7927-0.45589 10.151-5.5317 9.6941-11.339l-2.8151-35.77c-0.45765-5.8149-5.5638-10.143-11.349-9.6882zm9.3787 11.278c3.593-0.28277 6.7164 2.4066 6.998 5.9847 0.28307 3.5967-2.3833 6.7145-5.9763 6.9973-3.5856 0.28219-6.7191-2.3754-7.0024-5.9758-0.28131-3.5744 2.3951-6.724 5.9807-7.0062zm111.31 7.7988 45.838-3.6075 1.1983 15.226-45.835 3.6073zm-115.76 43.495c-5.8038 0.45677-10.167 5.5292-9.7093 11.34l2.8153 35.771c0.45735 5.8112 5.5602 10.142 11.364 9.6853l181.44-14.28c5.7927-0.45589 10.151-5.5314 9.6938-11.343l-2.8153-35.771c-0.45735-5.8112-5.5634-10.138-11.349-9.6831zm9.3792 11.285c3.593-0.28278 6.7146 2.3839 6.9968 5.9695 0.28394 3.6079-2.3831 6.7162-5.9761 6.999-3.5856 0.28219-6.7186-2.3697-7.0026-5.9776-0.2819-3.5818 2.3963-6.7087 5.9819-6.9909zm111.31 7.7835 45.838-3.6076 1.1984 15.227-45.835 3.6073z" fill="#420"/>
 </g>
 <path d="m1608.9 509.72-0.228-0.018c0.7864-3.03 1.335-6.1639 1.5892-9.3931 2.3419-29.757-19.882-55.777-49.639-58.119-25.244-1.9867-47.792 13.71-55.482 36.684-4.4283-4.8421-10.76-7.9668-17.958-8.0606-12.397-0.16154-23.138 9.0939-24.809 21.379-0.2983 2.1938-0.3026 4.3517-0.045 6.4371-19.439 1.2896-35.491 17.393-35.658 37.762-0.1646 20.114 15.644 36.779 35.696 38.357l140.07 11.024c20.088 1.5809 38.29-12.486 41.218-32.421 3.2269-21.97-12.974-41.916-34.758-43.63z" fill="none" stroke="#420" stroke-miterlimit="10" stroke-width="15.679"/>
 <path d="m276 172.04c-3.9524 0.70142-8.5423 2.7119-8.6623 6.6904-26.729 12.095-81.035 35.511-81.035 35.511l4.9816 23.347c-2.1859 1.3512-3.3332 3.5737-2.9988 5.6855 0.30858 1.9483 1.8624 3.6982 4.0851 4.586 0.20511 7.5712 0.73331 25.839 1.6217 36.948 5.0393 3.594 8.69 3.532 14.718 1.3031-5.0864-16.243-7.5101-31.238-8.5204-38.809 2.1308-1.2281 3.4784-3.3179 3.0884-5.7802-0.35365-2.2328-1.9898-3.842-4.1074-4.6405l-1.3997-18.662s49.425-21.162 74.138-31.743c2.4731-1.1592 4.795-1.4006 10.084-1.7849 4.246-0.52759 10.045-2.8913 9.5249-7.4634-1.6749-5.0976-8.7028-5.8961-13.879-5.4093-0.52372 0.0486-1.0747 0.12233-1.6393 0.22249zm-1.8856-57.694-144.36 87.037 57.7 18.265-1.1535-5.4064s54.306-23.416 81.035-35.511c0.11992-3.9784 4.7099-5.989 8.6622-6.6904 0.56465-0.10007 1.1156-0.17367 1.6393-0.22259 5.1766-0.48686 12.205 0.3117 13.879 5.4093 0.51993 4.572-5.2789 6.9358-9.5249 7.4634-5.2894 0.38427-7.6113 0.62564-10.084 1.7849-24.713 10.581-74.138 31.743-74.138 31.743l0.3605 4.8087 17.634 5.5823-6.3e-4 -4e-3 81.286 25.733 68.446-49.137 4.7e-4 3e-3 76.293-54.771zm-57.748 118.05 2.8028 55.003c65.06 32.581 116.6 16.875 160.7-25.453l-13.774-52.955-68.446 49.137z" fill="#420"/>
 <path d="m888.95 229.58v0a74.913 26.699 0 0 1-74.913 26.699 74.913 26.699 0 0 1-74.913-26.699m149.83-40.411v0a74.913 26.699 0 0 1-74.913 26.699 74.913 26.699 0 0 1-74.913-26.699m149.27-36.445a74.384 26.439 0 0 1-74.384 26.439 74.384 26.439 0 0 1-74.384-26.439 74.384 26.439 0 0 1 74.384-26.439 74.384 26.439 0 0 1 74.384 26.439zm-74.384-26.472c-41.084 0-74.443 12.298-74.443 27.442v109.73c0 15.144 33.359 27.433 74.443 27.433s74.443-12.289 74.443-27.433v-109.73h-0.0563c0-15.144-33.303-27.442-74.387-27.442z" fill="none" stroke="#420" stroke-linecap="round" stroke-linejoin="round" stroke-width="14.183"/>
 <path d="m1504.5 767.94c-1.0745 0.0507-1.9091 0.73718-1.8712 1.5393l7.3744 156.37c0.038 0.80216 0.9332 1.4071 2.0079 1.3564l45.333-2.1378c1.0745-0.0507 1.9091-0.7372 1.8713-1.5394l-7.3745-156.37c-0.038-0.80216-0.9334-1.4071-2.0079-1.3564zm148.21 28.1c-1.0743 0.0506-1.909 0.73728-1.8713 1.5394l5.7234 121.36c0.038 0.80208 0.9334 1.4071 2.0079 1.3564l45.328-2.1376c1.0745-0.0507 1.9091-0.73727 1.8711-1.5394l-5.7232-121.36c-0.038-0.80208-0.9332-1.4071-2.0077-1.3564zm-71.384 44.979c-1.0776 0.0508-1.9136 0.73857-1.8757 1.543l3.7673 79.887c0.038 0.80441 0.9351 1.4113 2.0127 1.3605l45.461-2.1439c1.0777-0.0508 1.9136-0.73943 1.8756-1.5438l-3.7674-79.887c-0.038-0.80442-0.9349-1.4105-2.0126-1.3596zm-100.98-82.753 8.0224 170.11 227.87-10.746" fill="none" stroke="#420" stroke-linecap="round" stroke-linejoin="round" stroke-width="13.521"/>
 <g fill="#420">
  <g transform="matrix(3.8279 0 0 3.8279 426.53 -761.93)" stroke="#420" stroke-width=".78371">
   <path d="m161.14 409.9-0.93626-2.2219h5.287l1.1442 2.2219zm2.3969 5.6882h6.0271l-2.9291-5.6882h-5.4949zm-7.3307-2.7826 0.89448 2.7826h6.4362l-1.1725-2.7826zm-0.93405-2.9057 0.93405 2.9057h6.1582l-1.2244-2.9057zm-0.71426-2.2219h5.6459l0.93626 2.2219h-5.8679zm-5.2678 2.2219-0.48793-2.2219h5.7557l0.71426 2.2219zm0.63808 2.9057-0.63808-2.9057h5.9821l0.93405 2.9057zm0 0 0.61106 2.7826h6.5614l-0.89448-2.7826zm-7.0092-2.9057 0.32286 2.9057h6.6864l-0.63808-2.9057zm-0.24689-2.2219h6.1301l0.48793 2.2219h-6.3711zm-6.2787 2.2219v2.9057h6.8484l-0.32286-2.9057zm0-2.2219h6.2787l0.24689 2.2219h-6.5256zm-5.5506 2.2219 0.21-2.2219h5.3406v2.2219zm-0.27462 2.9057h5.8253v-2.9057h-5.5506zm-5.2626-2.9057 0.4195-2.2219h5.3277l-0.21 2.2219zm-0.54858 2.9057 0.54858-2.9057h5.5372l-0.27462 2.9057zm-6.4628 2.7826 0.78182-2.7826h30.852l0.61106 2.7826zm1.5982-5.6882-0.81641 2.9057h5.681l0.54858-2.9057zm0.62431-2.2219h5.2083l-0.4195 2.2219h-5.4132zm-5.8345 2.2219 0.82143-2.2219h5.0131l-0.62431 2.2219zm-1.0742 2.9057 1.0742-2.9057h5.2102l-0.81641 2.9057zm-1.0287 2.7826h5.7148l0.78182-2.7826h-5.468zm-4.3813-2.7826-1.2729 2.7826h5.6542l1.0287-2.7826zm1.3292-2.9057-1.3292 2.9057h5.41l1.0742-2.9057zm1.0164-2.2219h4.9599l-0.82143 2.2219h-5.1549zm-5.9539 2.2219 1.2033-2.2219h4.7506l-1.0164 2.2219zm-1.5735 2.9057 1.5735-2.9057h4.9374l-1.3292 2.9057zm-1.5069 2.7826 1.5069-2.7826h5.1817l-1.2729 2.7826zm1.7898-9.859h63.965c1.108 0 1.7805 1.0456 2.3433 2l5.6567 9.5929c0.5628 0.95442-0.892 2-2 2h-75.965c-1.108 0-2.5876-1.0606-2-2l6-9.5929c0.58755-0.93939 0.892-2 2-2z" fill-rule="evenodd"/>
   <path d="m103.62 361.19c-1.108 0-2.0001 0.8921-2.0001 2.0001v38.721c0 1.108 0.8921 1.9996 2.0001 1.9996h62.346c1.108 0 2.0001-0.89159 2.0001-1.9996v-38.721c0-1.108-0.8921-2.0001-2.0001-2.0001zm3.5599 3.8839h55.226c1.108 0 2.0001 0.8921 2.0001 2.0001v30.63c0 1.108-0.89209 1.9996-2.0001 1.9996h-55.226c-1.108 0-2.0001-0.89159-2.0001-1.9996v-30.63c0-1.108 0.8921-2.0001 2.0001-2.0001z"/>
  </g>
  <path d="m1175.2 154.45a14.361 14.361 0 0 0-16.431 11.938l-31.452 198.58a14.361 14.361 0 0 0 11.938 16.431l141.84 22.466a14.361 14.361 0 0 0 16.431-11.938l31.452-198.58a14.361 14.361 0 0 0-11.938-16.431zm3.7222 22.4 127.66 20.219-29.205 184.39-127.66-20.219zm34.131 197.62a7.1805 7.1805 0 0 1 5.9689 8.2154 7.1805 7.1805 0 0 1-8.2155 5.9688 7.1805 7.1805 0 0 1-5.9687-8.2154 7.1805 7.1805 0 0 1 8.2153-5.9688z"/>
  <path d="m1695 115.11c-23.881-1.1729-46.786 7.018-64.488 23.071-17.729 16.07-28.124 38.063-29.297 61.928-1.1729 23.882 7.0178 46.788 23.088 64.5 16.044 17.711 38.036 28.107 61.917 29.28 49.306 2.4216 91.355-35.709 93.776-84.999 2.4208-49.291-35.69-91.359-84.996-93.78zm70.732 93.08c-0.4106 8.3558-2.1946 16.319-5.0778 23.691-6.004-0.78201-11.929-1.774-17.775-2.9926 5.9968-14.559 8.0455-30.519 5.7729-46.544-2.1657-15.243-8.1019-29.064-16.696-40.632 21.456 14.173 35.126 38.982 33.776 66.478zm-57.404-62.699c-14.709 16.893-27.263 35.669-37.225 55.965-8.4263-4.8838-16.538-10.257-24.304-16.065 6.3346-12.039 15.831-22.162 27.773-29.336 10.613-6.3932 22.181-9.8162 33.756-10.564zm-43.166 69.025c-6.3532 15.029-11.333 30.81-14.744 47.181-0.5247-0.79543-1.0405-1.6066-1.5304-2.4256-10.359-17.218-13.382-37.451-8.537-56.923 0.2685-1.1236 0.5862-2.1934 0.9062-3.3143 7.6651 5.59 15.641 10.76 23.905 15.481zm5.466 54.891c-2.4358 0.35017-4.8642 0.54707-7.2797 0.65894 3.1241-16.975 8.002-33.291 14.455-48.785 13.889 6.9387 28.479 12.663 43.665 17.033-0.4218 0.57727-0.8447 1.1977-1.2845 1.7916-12.079 16.064-29.665 26.457-49.556 29.301zm13.062-61.144c10.027-20.576 22.87-39.492 38.022-56.346 6.5563 9.3732 11.077 20.339 12.792 32.415 2.0186 14.236-0.022 28.392-5.7405 41.188-15.722-4.2594-30.802-10.077-45.073-17.257zm-43.589-59.482c14.885-13.508 34.127-20.391 54.198-19.406 4.5359 0.22263 8.965 0.87598 13.242 1.8553-13.837 0.87598-27.66 4.949-40.333 12.575-13.413 8.0674-24.235 19.263-31.732 32.526-3.4793-2.9401-6.8777-5.9615-10.202-9.0992 3.8901-6.8173 8.8537-13.043 14.828-18.45zm-24.614 52.03c0.3356-6.8295 1.5926-13.46 3.6724-19.785 3.2969 2.9996 6.6663 5.9171 10.116 8.7618-1.0763 2.9555-2.0124 5.995-2.7978 9.1103-3.8341 15.419-3.4987 31.212 0.7619 46.097-8.3833-13.069-12.529-28.367-11.752-44.184zm73.395 78.861c16.929-5.7155 31.759-16.372 42.724-30.987 1.6094-2.1432 3.1195-4.3509 4.5218-6.624 5.8083 1.2853 11.668 2.3766 17.616 3.2841-13.794 21.237-37.929 34.965-64.862 34.327z"/>
 </g>
</svg>
