<?xml version="1.0" encoding="UTF-8" standalone="no"?>
<!DOCTYPE svg PUBLIC "-//W3C//DTD SVG 1.1//EN" "http://www.w3.org/Graphics/SVG/1.1/DTD/svg11.dtd">
<svg width="100%" height="100%" viewBox="0 0 601 600" version="1.1" xmlns="http://www.w3.org/2000/svg" xmlns:xlink="http://www.w3.org/1999/xlink" xml:space="preserve" xmlns:serif="http://www.serif.com/" style="fill-rule:evenodd;clip-rule:evenodd;stroke-linecap:round;stroke-linejoin:round;stroke-miterlimit:1.41421;">
    <g transform="matrix(1,0,0,1,-700,0)">
        <g id="queen" transform="matrix(0.862409,0,0,1.10621,700.044,1491.29)">
            <rect x="0" y="-1348.1" width="695.725" height="542.391" style="fill:none;"/>
            <g id="Queen" transform="matrix(1.74271,0,0,1.44501,28.9886,-3208.3)">
                <g transform="matrix(1,0,0,1,-148.338,47.5703)">
                    <path d="M222.338,1599.4C222.338,1599.4 234.042,1560.69 229.136,1541.8C223.809,1521.29 186.629,1476.4 186.629,1476.4C179.162,1467.26 170.135,1349.59 170.135,1349.59L165.212,1347.94C159.197,1345.91 155.424,1343.13 152.545,1338.6C147.463,1330.6 146.977,1321.97 151.132,1313.53C155.387,1304.88 163.179,1300.26 173.497,1300.26C183.814,1300.26 191.606,1304.88 195.861,1313.53C200.793,1323.54 199.336,1332.62 191.073,1343.36C190.643,1343.92 197.958,1359.73 211.91,1388.41L233.408,1432.61L236.534,1378.3C238.246,1348.44 239.676,1322.91 239.698,1321.59C239.743,1319.55 239.333,1318.97 236.959,1317.75C231.949,1315.16 228.003,1311.12 225.45,1305.93C219.197,1293.22 224.691,1278.82 238.261,1272.36C246.658,1268.36 256.969,1270.17 264.845,1277.04C266.698,1278.65 268.976,1281.79 270.428,1284.74C272.542,1289.04 272.877,1290.49 272.877,1295.34C272.877,1300.18 272.542,1301.63 270.428,1305.93C268.984,1308.85 266.735,1311.97 264.971,1313.48L261.964,1316.05L280.448,1369.7C290.616,1399.21 299.118,1423.36 299.333,1423.36C299.557,1423.37 304.44,1396.33 310.18,1363.27L320.616,1303.17L317.423,1301.06C310.299,1296.34 306.391,1289.03 306.383,1280.43C306.368,1270.42 311.899,1262.11 321.636,1257.47C327.435,1254.71 335.192,1254.71 340.991,1257.47C347.058,1260.36 351.004,1264.17 353.803,1269.86C355.917,1274.15 356.252,1275.6 356.244,1280.43C356.237,1289.03 352.329,1296.34 345.205,1301.06L342.011,1303.17L352.448,1363.27C358.187,1396.33 363.071,1423.37 363.294,1423.36C363.51,1423.36 372.011,1399.21 382.18,1369.7L400.664,1316.05L397.656,1313.48C395.892,1311.97 393.644,1308.85 392.2,1305.93C385.947,1293.22 391.441,1278.82 405.011,1272.36C410.81,1269.6 418.567,1269.6 424.366,1272.36C430.433,1275.25 434.379,1279.06 437.178,1284.74C439.292,1289.04 439.627,1290.49 439.627,1295.34C439.627,1300.18 439.292,1301.63 437.178,1305.93C434.624,1311.12 430.679,1315.16 425.669,1317.75C423.294,1318.97 422.885,1319.55 422.929,1321.59C422.952,1322.91 424.381,1348.44 426.093,1378.3L429.22,1432.61L450.719,1388.41C464.669,1359.73 471.987,1343.92 471.555,1343.36C463.292,1332.62 461.833,1323.54 466.768,1313.53C471.019,1304.88 478.813,1300.26 489.131,1300.26C499.448,1300.26 507.242,1304.88 511.493,1313.53C515.654,1321.97 515.163,1330.6 510.086,1338.6C507.205,1343.13 503.431,1345.91 497.416,1347.94L492.495,1349.59L475.999,1476.36C475.999,1476.36 441.481,1521.29 434.803,1541.8C428.783,1560.29 438.912,1584.91 439.679,1599.4C412.046,1599.48 224.594,1599.52 222.338,1599.4Z" style="fill:white;fill-opacity:0.5;stroke:black;stroke-width:19.45px;"/>
                </g>
                <path d="M38.291,1523.97L327.661,1523.93" style="fill:none;stroke:black;stroke-width:19.45px;stroke-miterlimit:1.5;"/>
                <path d="M80.797,1589.37L286.465,1589.37" style="fill:none;stroke:black;stroke-width:19.45px;stroke-miterlimit:1.5;"/>
            </g>
        </g>
    </g>
</svg>
