<?xml version="1.0" encoding="UTF-8" standalone="no"?>
<!DOCTYPE svg PUBLIC "-//W3C//DTD SVG 1.1//EN" "http://www.w3.org/Graphics/SVG/1.1/DTD/svg11.dtd">
<svg width="100%" height="100%" viewBox="0 0 600 600" version="1.1" xmlns="http://www.w3.org/2000/svg" xmlns:xlink="http://www.w3.org/1999/xlink" xml:space="preserve" xmlns:serif="http://www.serif.com/" style="fill-rule:evenodd;clip-rule:evenodd;stroke-linecap:round;stroke-linejoin:round;stroke-miterlimit:1.41421;">
    <g transform="matrix(1,0,0,1,-1400,0)">
        <g id="bishop" transform="matrix(0.862409,0,0,1.10621,1400,1491.29)">
            <rect x="0" y="-1348.1" width="695.725" height="542.391" style="fill:none;"/>
            <g transform="matrix(13.8744,0,0,10.7628,-4829.87,-11282.8)">
                <g id="Bishop">
                    <path id="Bishop1" serif:id="Bishop" d="M373.306,925.155C371.306,925.155 369.626,926.835 369.626,928.835C369.626,929.875 370.026,930.755 370.666,931.475C370.106,932.435 369.626,933.395 369.226,933.875C368.666,934.515 368.266,935.075 367.946,935.475C372.426,940.195 375.786,948.594 375.546,951.634C373.626,948.594 365.626,940.835 363.626,940.355C360.746,944.195 359.066,949.554 359.866,952.594C360.906,955.714 362.826,958.674 365.066,960.994C363.466,963.474 361.706,964.834 358.906,965.874C356.026,966.994 354.746,967.634 354.266,968.274C353.946,968.754 353.546,970.914 353.546,971.314C353.546,971.314 392.906,971.394 392.826,971.314C392.826,970.914 392.346,968.754 392.026,968.274C391.626,967.634 390.346,966.994 387.386,965.874C384.506,964.754 382.746,963.314 381.066,960.754C382.746,958.994 384.426,956.914 385.546,954.994C388.026,949.954 386.346,944.275 379.786,936.675C377.706,934.275 376.106,932.115 376.026,931.955C376.026,931.955 375.866,931.715 375.786,931.555C376.586,930.915 377.066,929.955 377.066,928.835C377.066,926.835 375.386,925.155 373.306,925.155Z" style="fill:white;fill-opacity:0.5;stroke:black;stroke-width:2.61px;"/>
                </g>
            </g>
        </g>
    </g>
</svg>
