<?xml version="1.0" encoding="UTF-8" standalone="no"?>
<!DOCTYPE svg PUBLIC "-//W3C//DTD SVG 1.1//EN" "http://www.w3.org/Graphics/SVG/1.1/DTD/svg11.dtd">
<svg width="100%" height="100%" viewBox="0 0 601 600" version="1.1" xmlns="http://www.w3.org/2000/svg" xmlns:xlink="http://www.w3.org/1999/xlink" xml:space="preserve" xmlns:serif="http://www.serif.com/" style="fill-rule:evenodd;clip-rule:evenodd;stroke-linecap:round;stroke-linejoin:round;stroke-miterlimit:1.5;">
    <g transform="matrix(1,0,0,1,-700,-700)">
        <g id="human" transform="matrix(0.862409,0,0,1.10621,700.044,2191.29)">
            <rect x="0" y="-1348.1" width="695.725" height="542.391" style="fill:none;"/>
            <g transform="matrix(1.15954,0,0,0.903984,-811.731,-2613.68)">
                <g id="Human">
                    <path d="M947.803,1642.46C910.562,1623.42 885.044,1584.66 885.044,1540C885.044,1476.53 936.574,1425 1000.04,1425C1063.51,1425 1115.04,1476.53 1115.04,1540C1115.04,1584.66 1089.53,1623.42 1052.29,1642.46L1240.17,1975L759.913,1975L947.803,1642.46ZM999.373,1655C999.596,1655 999.82,1655 1000.04,1655C1000.27,1655 1000.49,1655 1000.72,1655L1000.04,1655L999.373,1655ZM998.612,1654.99C998.826,1654.99 999.04,1655 999.255,1655L998.612,1654.99ZM1001.48,1654.99L1000.83,1655C1001.05,1655 1001.26,1654.99 1001.48,1654.99ZM1002.26,1654.98L1001.6,1654.99C1001.82,1654.99 1002.04,1654.98 1002.26,1654.98ZM997.828,1654.98C998.047,1654.98 998.267,1654.99 998.487,1654.99L997.828,1654.98ZM1002.94,1654.96L1002.3,1654.98L1002.68,1654.97L1002.94,1654.96ZM997.406,1654.97L997.786,1654.98L997.147,1654.96L997.406,1654.97ZM1003.69,1654.94L1003.05,1654.96C1003.26,1654.96 1003.48,1654.95 1003.69,1654.94ZM996.398,1654.94C996.612,1654.95 996.826,1654.96 997.04,1654.96L996.398,1654.94ZM995.621,1654.92C995.837,1654.92 996.054,1654.93 996.27,1654.94L995.621,1654.92ZM1004.47,1654.92L1003.82,1654.94C1004.03,1654.93 1004.25,1654.92 1004.47,1654.92ZM995.22,1654.9L995.55,1654.91L994.927,1654.89L995.22,1654.9ZM1005.16,1654.89L1004.54,1654.91L1004.87,1654.9L1005.16,1654.89ZM1005.89,1654.85L1005.25,1654.88C1005.47,1654.87 1005.68,1654.86 1005.89,1654.85ZM994.194,1654.85C994.408,1654.86 994.622,1654.87 994.836,1654.88L994.194,1654.85ZM993.425,1654.81C993.638,1654.82 993.851,1654.84 994.065,1654.85L993.425,1654.81ZM1006.66,1654.81L1006.02,1654.85C1006.24,1654.84 1006.45,1654.82 1006.66,1654.81ZM1007.37,1654.77L1006.75,1654.81L1007.05,1654.79L1007.37,1654.77ZM993.043,1654.79L993.333,1654.81L992.714,1654.77L993.043,1654.79ZM992,1654.72C992.214,1654.74 992.429,1654.75 992.644,1654.77L992,1654.72ZM1008.09,1654.72L1007.44,1654.77C1007.66,1654.75 1007.87,1654.74 1008.09,1654.72ZM1008.85,1654.67L1008.22,1654.71C1008.43,1654.7 1008.64,1654.68 1008.85,1654.67ZM991.239,1654.67C991.45,1654.68 991.661,1654.7 991.873,1654.71L991.239,1654.67ZM1009.58,1654.61L1008.96,1654.66L1009.21,1654.64L1009.58,1654.61ZM990.877,1654.64L991.133,1654.66L990.503,1654.61L990.877,1654.64ZM1010.27,1654.55L1009.62,1654.61C1009.84,1654.59 1010.06,1654.57 1010.27,1654.55ZM989.815,1654.55C990.031,1654.57 990.246,1654.59 990.462,1654.61L989.815,1654.55ZM989.063,1654.48C989.273,1654.5 989.482,1654.52 989.692,1654.54L989.063,1654.48ZM1011.02,1654.48L1010.4,1654.54C1010.61,1654.52 1010.82,1654.5 1011.02,1654.48ZM988.293,1654.41C988.511,1654.43 988.729,1654.45 988.947,1654.47L988.293,1654.41ZM1011.79,1654.41L1011.14,1654.47C1011.36,1654.45 1011.58,1654.43 1011.79,1654.41ZM1012.45,1654.34L1011.8,1654.41L1012.22,1654.36L1012.45,1654.34ZM987.864,1654.36L988.291,1654.41L987.64,1654.34L987.864,1654.36ZM1013.19,1654.26L1012.56,1654.33C1012.77,1654.3 1012.98,1654.28 1013.19,1654.26ZM986.899,1654.26C987.107,1654.28 987.315,1654.3 987.524,1654.33L986.899,1654.26ZM1013.95,1654.17L1013.31,1654.24C1013.52,1654.22 1013.74,1654.19 1013.95,1654.17ZM986.136,1654.17C986.349,1654.19 986.563,1654.22 986.776,1654.24L986.136,1654.17ZM985.726,1654.12L986.092,1654.16L985.474,1654.08L985.726,1654.12ZM1014.61,1654.08L1014,1654.16L1014.36,1654.12L1014.61,1654.08ZM984.746,1653.99C984.953,1654.02 985.161,1654.04 985.369,1654.07L984.746,1653.99ZM1015.34,1653.99L1014.72,1654.07C1014.93,1654.04 1015.13,1654.02 1015.34,1653.99ZM1016.1,1653.89L1015.47,1653.97C1015.68,1653.94 1015.89,1653.91 1016.1,1653.89ZM983.99,1653.89C984.2,1653.92 984.409,1653.94 984.619,1653.97L983.99,1653.89ZM1016.77,1653.79L1016.17,1653.88L1016.49,1653.83L1016.77,1653.79ZM983.6,1653.83L983.918,1653.88L983.317,1653.79L983.6,1653.83ZM1017.48,1653.68L1016.86,1653.78C1017.07,1653.75 1017.28,1653.72 1017.48,1653.68ZM982.605,1653.68C982.812,1653.72 983.019,1653.75 983.226,1653.78L982.605,1653.68ZM1018.23,1653.57L1017.61,1653.66C1017.82,1653.63 1018.02,1653.6 1018.23,1653.57ZM981.857,1653.57C982.063,1653.6 982.27,1653.63 982.476,1653.66L981.857,1653.57ZM1018.92,1653.45L1018.32,1653.55L1018.6,1653.51L1018.92,1653.45ZM981.486,1653.51L981.764,1653.55L981.169,1653.45L981.486,1653.51ZM1019.61,1653.34L1018.99,1653.44C1019.2,1653.41 1019.41,1653.37 1019.61,1653.34ZM980.475,1653.34C980.682,1653.37 980.889,1653.41 981.096,1653.44L980.475,1653.34ZM979.737,1653.21C979.94,1653.25 980.144,1653.28 980.347,1653.32L979.737,1653.21ZM1020.35,1653.21L1019.74,1653.32C1019.94,1653.28 1020.15,1653.25 1020.35,1653.21ZM1021.06,1653.08L1020.46,1653.19L1020.7,1653.15L1021.06,1653.08ZM979.385,1653.15L979.628,1653.19L979.027,1653.08L979.385,1653.15ZM978.358,1652.95C978.565,1652.99 978.772,1653.03 978.98,1653.07L978.358,1652.95ZM1021.73,1652.95L1021.11,1653.07C1021.32,1653.03 1021.52,1652.99 1021.73,1652.95ZM1022.46,1652.81L1021.86,1652.93C1022.06,1652.89 1022.26,1652.85 1022.46,1652.81ZM977.629,1652.81C977.83,1652.85 978.031,1652.89 978.232,1652.93L977.629,1652.81ZM1023.2,1652.66L1022.58,1652.79L1022.79,1652.75L1023.2,1652.66ZM977.297,1652.75L977.509,1652.79L976.889,1652.66L977.297,1652.75ZM1023.84,1652.53L1023.22,1652.66L1023.62,1652.58L1023.84,1652.53ZM976.465,1652.58L976.867,1652.66L976.253,1652.53L976.465,1652.58ZM975.535,1652.38C975.734,1652.42 975.933,1652.46 976.132,1652.51L975.535,1652.38ZM1024.55,1652.38L1023.96,1652.51C1024.15,1652.46 1024.35,1652.42 1024.55,1652.38ZM974.796,1652.22C974.999,1652.26 975.202,1652.31 975.406,1652.35L974.796,1652.22ZM1025.29,1652.22L1024.68,1652.35C1024.89,1652.31 1025.09,1652.26 1025.29,1652.22ZM1025.93,1652.07L1025.35,1652.2L1025.69,1652.12L1025.93,1652.07ZM974.396,1652.12L974.739,1652.2L974.16,1652.07L974.396,1652.12ZM973.454,1651.9C973.651,1651.95 973.848,1652 974.046,1652.04L973.454,1651.9ZM1026.63,1651.9L1026.04,1652.04C1026.24,1652 1026.44,1651.95 1026.63,1651.9ZM1027.37,1651.73L1026.77,1651.87C1026.97,1651.83 1027.17,1651.78 1027.37,1651.73ZM972.723,1651.73C972.921,1651.78 973.12,1651.83 973.319,1651.87L972.723,1651.73ZM1028.01,1651.57L1027.45,1651.71L1027.75,1651.63L1028.01,1651.57ZM972.341,1651.63L972.636,1651.71L972.079,1651.57L972.341,1651.63ZM971.388,1651.39C971.583,1651.44 971.779,1651.5 971.975,1651.54L971.388,1651.39ZM1028.7,1651.39L1028.11,1651.54C1028.31,1651.5 1028.5,1651.44 1028.7,1651.39ZM970.665,1651.21C970.859,1651.26 971.054,1651.31 971.248,1651.36L970.665,1651.21ZM1029.42,1651.21L1028.84,1651.36C1029.03,1651.31 1029.23,1651.26 1029.42,1651.21ZM970.301,1651.11L970.555,1651.18L970.01,1651.03L970.301,1651.11ZM1030.08,1651.03L1029.53,1651.18L1029.79,1651.11L1030.08,1651.03ZM969.336,1650.85C969.53,1650.9 969.724,1650.95 969.918,1651.01L969.336,1650.85ZM1030.75,1650.85L1030.17,1651.01C1030.36,1650.95 1030.56,1650.9 1030.75,1650.85ZM968.621,1650.65C968.812,1650.7 969.002,1650.76 969.193,1650.81L968.621,1650.65ZM1031.47,1650.65L1030.89,1650.81C1031.09,1650.76 1031.28,1650.7 1031.47,1650.65ZM968.275,1650.55L968.494,1650.61L967.952,1650.45L968.275,1650.55ZM1032.14,1650.45L1031.59,1650.61L1031.81,1650.55L1032.14,1650.45ZM967.299,1650.26C967.492,1650.32 967.684,1650.38 967.877,1650.43L967.299,1650.26ZM1032.79,1650.26L1032.21,1650.43C1032.4,1650.38 1032.6,1650.32 1032.79,1650.26ZM966.594,1650.05C966.78,1650.11 966.967,1650.16 967.154,1650.22L966.594,1650.05ZM1033.49,1650.05L1032.93,1650.22C1033.12,1650.16 1033.31,1650.11 1033.49,1650.05ZM966.264,1649.95L966.452,1650.01L965.903,1649.84L966.264,1649.95ZM1034.18,1649.84L1033.64,1650.01L1033.82,1649.95L1034.18,1649.84ZM965.464,1649.7L965.818,1649.81L965.277,1649.64L965.464,1649.7ZM1034.81,1649.64L1034.27,1649.81L1034.62,1649.7L1034.81,1649.64ZM964.582,1649.42C964.765,1649.48 964.948,1649.54 965.132,1649.6L964.582,1649.42ZM1035.51,1649.42L1034.96,1649.6C1035.14,1649.54 1035.32,1649.48 1035.51,1649.42ZM963.869,1649.18C964.055,1649.25 964.241,1649.31 964.428,1649.37L963.869,1649.18ZM1036.22,1649.18L1035.66,1649.37C1035.85,1649.31 1036.03,1649.25 1036.22,1649.18ZM963.475,1649.05L963.771,1649.15L963.271,1648.99L963.475,1649.05ZM1036.82,1648.99L1036.32,1649.15L1036.61,1649.05L1036.82,1648.99ZM962.586,1648.75C962.766,1648.81 962.946,1648.88 963.126,1648.94L962.586,1648.75ZM1037.5,1648.75L1036.96,1648.94C1037.14,1648.88 1037.32,1648.81 1037.5,1648.75ZM961.881,1648.51C962.061,1648.57 962.241,1648.63 962.422,1648.69L961.881,1648.51ZM1038.21,1648.51L1037.67,1648.69C1037.85,1648.63 1038.03,1648.57 1038.21,1648.51ZM961.502,1648.37L961.751,1648.46L961.281,1648.29L961.502,1648.37ZM1038.81,1648.29L1038.34,1648.46L1038.59,1648.37L1038.81,1648.29ZM960.608,1648.05C960.784,1648.11 960.96,1648.18 961.136,1648.24L960.608,1648.05ZM1039.48,1648.05L1038.95,1648.24C1039.13,1648.18 1039.31,1648.11 1039.48,1648.05ZM959.91,1647.79C960.084,1647.86 960.259,1647.92 960.433,1647.99L959.91,1647.79ZM1040.18,1647.79L1039.65,1647.99C1039.83,1647.92 1040,1647.86 1040.18,1647.79ZM959.546,1647.65L959.755,1647.73L959.307,1647.56L959.546,1647.65ZM1040.78,1647.56L1040.33,1647.73L1040.54,1647.65L1040.78,1647.56ZM958.646,1647.31C958.819,1647.38 958.991,1647.44 959.164,1647.51L958.646,1647.31ZM1041.44,1647.31L1040.92,1647.51C1041.1,1647.44 1041.27,1647.38 1041.44,1647.31ZM957.956,1647.04C958.125,1647.11 958.294,1647.17 958.463,1647.24L957.956,1647.04ZM1042.13,1647.04L1041.62,1647.24C1041.79,1647.17 1041.96,1647.11 1042.13,1647.04ZM957.606,1646.9L957.78,1646.97L957.349,1646.8L957.606,1646.9ZM1042.74,1646.8L1042.31,1646.97L1042.48,1646.9L1042.74,1646.8ZM956.835,1646.59L957.168,1646.73L956.703,1646.54L956.835,1646.59ZM1043.38,1646.54L1042.92,1646.73L1043.25,1646.59L1043.38,1646.54ZM956.02,1646.26C956.184,1646.33 956.347,1646.39 956.511,1646.46L956.02,1646.26ZM1044.07,1646.26L1043.58,1646.46C1043.74,1646.39 1043.9,1646.33 1044.07,1646.26ZM955.683,1646.12L955.826,1646.18L955.408,1646L955.683,1646.12ZM1044.68,1646L1044.26,1646.18L1044.4,1646.12L1044.68,1646ZM954.919,1645.8L955.185,1645.91L954.779,1645.74L954.919,1645.8ZM1045.31,1645.74L1044.9,1645.91L1045.17,1645.8L1045.31,1645.74ZM954.104,1645.44C954.261,1645.51 954.418,1645.58 954.577,1645.65L954.104,1645.44ZM1045.98,1645.44L1045.51,1645.65C1045.67,1645.58 1045.83,1645.51 1045.98,1645.44ZM953.778,1645.3L953.892,1645.35L953.484,1645.17L953.778,1645.3ZM1046.6,1645.17L1046.2,1645.35L1046.31,1645.3L1046.6,1645.17ZM953.021,1644.96L953.234,1645.06L952.941,1644.93L953.021,1644.96ZM1047.15,1644.93L1046.85,1645.06L1047.07,1644.96L1047.15,1644.93ZM952.267,1644.62L952.359,1644.66L952.228,1644.6L952.267,1644.62ZM1047.86,1644.6L1047.73,1644.66L1047.82,1644.62L1047.86,1644.6ZM950.022,1643.56L950.06,1643.58L949.942,1643.53L950.022,1643.56ZM1050.14,1643.53L1050.03,1643.58L1050.07,1643.56L1050.14,1643.53ZM949.279,1643.2L949.348,1643.23L949.206,1643.16L949.279,1643.2ZM1050.88,1643.16L1050.74,1643.23L1050.81,1643.2L1050.88,1643.16ZM948.54,1642.83L948.614,1642.87L948.498,1642.81L948.54,1642.83ZM1051.59,1642.81L1051.47,1642.87L1051.55,1642.83L1051.59,1642.81Z" style="fill:white;fill-opacity:0.5;stroke:black;stroke-width:24px;"/>
                </g>
            </g>
        </g>
    </g>
</svg>
