<?xml version="1.0" encoding="UTF-8" standalone="no"?>
<!DOCTYPE svg PUBLIC "-//W3C//DTD SVG 1.1//EN" "http://www.w3.org/Graphics/SVG/1.1/DTD/svg11.dtd">
<svg width="100%" height="100%" viewBox="0 0 600 600" version="1.1" xmlns="http://www.w3.org/2000/svg" xmlns:xlink="http://www.w3.org/1999/xlink" xml:space="preserve" xmlns:serif="http://www.serif.com/" style="fill-rule:evenodd;clip-rule:evenodd;stroke-linecap:round;stroke-linejoin:round;stroke-miterlimit:1.41421;">
    <g id="knight" transform="matrix(0.862409,0,0,1.10621,3.55271e-15,1491.29)">
        <rect x="0" y="-1348.1" width="695.725" height="542.391" style="fill:none;"/>
        <g id="Knight" transform="matrix(1.29656,0,0,1.12141,368.233,-1908.29)">
            <g transform="matrix(1,0,0,1,-282.86,489.52)">
                <path d="M125.095,311.916L94.952,363.878C66.246,359.648 41.455,332.33 43.711,304.11C45.162,285.97 53.325,267.83 73.853,237.14C87.902,216.14 97.529,194.9 97.529,194.9L99.876,151.52L139.72,101.92L137.52,74.22C134.5,36.038 134.49,36.137 140.7,33.527C144.93,31.749 203.85,67.02 204.27,67.02C204.69,67.02 239.22,30.952 242.09,30.414C248.2,29.268 249.64,31.313 262.07,58.633L273.47,83.677L279.67,82.768C288.58,81.463 310.27,82.614 321.53,84.988C341.99,89.299 362.3,98.094 378.74,109.76C389.72,117.55 407.4,135.43 415.58,147.02C433.27,172.07 446.09,200.1 457.84,239.44C478.01,306.98 490.729,473.52 490.729,473.52C490.729,473.52 172.353,473.74 170.38,472.75C162.3,468.72 161.1,444.94 167.95,424.79C173.81,407.57 180.57,398.47 206.41,373.02C229.69,350.09 235.89,342.54 243.13,328.32C251.78,311.35 255.18,297.92 256.09,277.27C256.41,269.98 256.43,264.02 256.14,264.02C255.85,264.02 250.94,266.87 245.24,270.36C239.54,273.84 226.71,280.84 216.72,285.91C178.82,305.15 172.87,310.8 155.96,343.6C152.82,349.69 148.24,357.24 145.77,360.38C137.89,370.43 125.21,378.093 116.32,378.02C110.636,377.973 97.717,369.371 94.952,363.878" style="fill:white;fill-opacity:0.5;stroke:black;stroke-width:25.07px;"/>
            </g>
            <g transform="matrix(1.28967,0,0,1.28967,-363.584,-1098.09)">
                <path d="M180.13,1353.64L184.537,1348.63" style="fill:none;stroke:black;stroke-width:19.44px;stroke-miterlimit:1.5;"/>
            </g>
        </g>
    </g>
</svg>
