<?xml version="1.0" encoding="UTF-8" standalone="no"?>
<!DOCTYPE svg PUBLIC "-//W3C//DTD SVG 1.1//EN" "http://www.w3.org/Graphics/SVG/1.1/DTD/svg11.dtd">
<svg width="100%" height="100%" viewBox="0 0 250 100" version="1.1" xmlns="http://www.w3.org/2000/svg" xmlns:xlink="http://www.w3.org/1999/xlink" xml:space="preserve" xmlns:serif="http://www.serif.com/" style="fill-rule:evenodd;clip-rule:evenodd;stroke-linejoin:round;stroke-miterlimit:2;">
    <g transform="matrix(0.1,0,0,-0.1,0.00286502,102.35)">
        <path d="M1898,859C1818,851 1543,808 1453,789C1400,779 1381,760 1422,760C1464,760 1995,852 2005,861C2015,871 2010,871 1898,859Z" style="fill:#2b2c7c;fill-rule:nonzero;"/>
        <g transform="matrix(1,0,0,1,-28.9613,37)">
            <path d="M507,853L515,465L460,453C430,447 362,441 309,441L212,440L200,528C173,723 153,799 131,785C127,783 129,746 136,703C143,660 154,522 160,395C171,159 179,120 216,120C239,120 243,145 226,179C215,200 210,237 210,298L210,387L248,393C268,397 336,404 399,411C488,420 514,420 520,410C524,404 530,362 534,318C543,212 558,144 576,129C588,119 597,122 623,148C641,165 684,190 720,204C756,217 839,253 905,284C971,315 1040,343 1058,346C1089,352 1090,351 1090,319C1090,271 1100,240 1115,240C1122,240 1140,256 1155,275C1170,295 1205,329 1233,351C1292,398 1317,398 1385,352C1407,337 1452,315 1485,303C1543,282 1546,282 1563,299C1573,309 1584,336 1587,359C1594,407 1614,425 1675,435C1697,439 1740,448 1770,456C1818,467 1832,467 1874,455C1927,439 2148,436 2350,449C2503,459 2432,468 2150,475C2021,478 1898,485 1877,491C1850,498 1817,497 1757,488C1666,474 1596,473 1533,485C1467,497 1424,485 1410,450C1397,420 1359,408 1345,430C1333,449 1293,440 1225,404C1159,369 1156,368 1129,384C1092,406 1083,405 983,365C935,345 890,331 884,332C875,334 879,353 897,395C933,481 937,552 911,640C870,773 771,838 596,848L507,853ZM762,776C791,762 825,742 838,731C871,702 891,635 893,550C895,460 875,415 797,333C733,265 696,242 640,239C597,236 596,236 589,270C569,376 570,408 596,440L622,470L597,479C576,487 570,498 565,544C555,623 555,783 564,799C577,820 698,805 762,776ZM1543,384C1556,371 1529,340 1505,340C1487,340 1480,345 1480,359C1480,384 1525,402 1543,384Z" style="fill:#2b2c7c;fill-rule:nonzero;"/>
        </g>
    </g>
</svg>
