<?xml version="1.0" encoding="UTF-8" standalone="no"?>
<svg
   width="1920"
   height="1080"
   viewBox="0 0 1920 1080"
   version="1.1"
   id="svg1"
   sodipodi:docname="hero_neu.svg"
   xml:space="preserve"
   inkscape:version="1.3 (0e150ed, 2023-07-21)"
   inkscape:export-filename="hero.svg"
   inkscape:export-xdpi="96"
   inkscape:export-ydpi="96"
   xmlns:inkscape="http://www.inkscape.org/namespaces/inkscape"
   xmlns:sodipodi="http://sodipodi.sourceforge.net/DTD/sodipodi-0.dtd"
   xmlns="http://www.w3.org/2000/svg"
   xmlns:svg="http://www.w3.org/2000/svg"><defs
     id="defs1"><mask
       maskUnits="userSpaceOnUse"
       id="mask3818"><path
         inkscape:export-ydpi="90"
         inkscape:export-xdpi="90"
         transform="matrix(1.2020779,0,0,1.2020779,-93.20363,-75.172466)"
         d="m 483,275.5 a 192.5,192.5 0 1 1 -385,0 192.5,192.5 0 1 1 385,0 z"
         sodipodi:ry="192.5"
         sodipodi:rx="192.5"
         sodipodi:cy="275.5"
         sodipodi:cx="290.5"
         id="path3820"
         style="fill:#ffffff;fill-opacity:1;stroke:none;display:inline"
         sodipodi:type="arc" /></mask><clipPath
       id="clipPath3929"
       clipPathUnits="userSpaceOnUse"><path
         inkscape:connector-curvature="0"
         style="fill:#ff3232;fill-opacity:1;stroke:none"
         d="m 0,0 0,1024 1024,0 L 1024,0 0,0 z m 278.4375,333.84375 119.78125,0 c 9.83697,42.31453 19.85954,84.58596 29.9375,126.84375 9.86978,-42.28798 20.05132,-84.50237 29.6875,-126.84375 l 108.90625,0 c 9.63586,42.34141 19.8178,84.55578 29.6875,126.84375 10.07827,-42.25772 20.10031,-84.52927 29.9375,-126.84375 l 119.1875,0 c -26.26221,110.73099 -52.49625,221.46929 -78.28125,332.3125 l -122.8125,0 c -10.59439,-45.55681 -21.46638,-91.04874 -32.375,-136.53125 -10.66279,45.51136 -21.5615,90.96897 -32,136.53125 l -122.8125,0 c -25.71418,-110.03502 -52.0286,-219.92873 -78.25,-329.84375 l -0.59375,-2.46875 z"
         id="path3931" /></clipPath><clipPath
       id="clipPath3934"
       clipPathUnits="userSpaceOnUse"><path
         id="path3936"
         d="m 0,0 0,1024 1024,0 L 1024,0 0,0 z m 278.4375,333.84375 119.78125,0 c 9.83697,42.31453 19.85954,84.58596 29.9375,126.84375 9.86978,-42.28798 20.05132,-84.50237 29.6875,-126.84375 l 108.90625,0 c 9.63586,42.34141 19.8178,84.55578 29.6875,126.84375 10.07827,-42.25772 20.10031,-84.52927 29.9375,-126.84375 l 119.1875,0 c -26.26221,110.73099 -52.49625,221.46929 -78.28125,332.3125 l -122.8125,0 c -10.59439,-45.55681 -21.46638,-91.04874 -32.375,-136.53125 -10.66279,45.51136 -21.5615,90.96897 -32,136.53125 l -122.8125,0 c -25.71418,-110.03502 -52.0286,-219.92873 -78.25,-329.84375 l -0.59375,-2.46875 z"
         style="fill:#ff3232;fill-opacity:1;stroke:none"
         inkscape:connector-curvature="0" /></clipPath><mask
       maskUnits="userSpaceOnUse"
       id="mask3818-2"><path
         inkscape:export-ydpi="90"
         inkscape:export-xdpi="90"
         transform="matrix(1.2020779,0,0,1.2020779,-93.20363,-75.172466)"
         d="m 483,275.5 a 192.5,192.5 0 1 1 -385,0 192.5,192.5 0 1 1 385,0 z"
         sodipodi:ry="192.5"
         sodipodi:rx="192.5"
         sodipodi:cy="275.5"
         sodipodi:cx="290.5"
         id="path3820-2-2"
         style="fill:#ffffff;fill-opacity:1;stroke:none;display:inline"
         sodipodi:type="arc" /></mask><mask
       maskUnits="userSpaceOnUse"
       id="mask3818-0"><path
         inkscape:export-ydpi="90"
         inkscape:export-xdpi="90"
         transform="matrix(1.2020779,0,0,1.2020779,-93.20363,-75.172466)"
         d="m 483,275.5 a 192.5,192.5 0 1 1 -385,0 192.5,192.5 0 1 1 385,0 z"
         sodipodi:ry="192.5"
         sodipodi:rx="192.5"
         sodipodi:cy="275.5"
         sodipodi:cx="290.5"
         id="path3820-8"
         style="fill:#ffffff;fill-opacity:1;stroke:none;display:inline"
         sodipodi:type="arc" /></mask><clipPath
       id="clipPath3006-9"
       clipPathUnits="userSpaceOnUse"><path
         inkscape:export-ydpi="90"
         inkscape:export-xdpi="90"
         transform="matrix(1.2020779,0,0,1.2020779,-93.20363,-75.172465)"
         d="m 483,275.5 a 192.5,192.5 0 1 1 -385,0 192.5,192.5 0 1 1 385,0 z"
         sodipodi:ry="192.5"
         sodipodi:rx="192.5"
         sodipodi:cy="275.5"
         sodipodi:cx="290.5"
         id="path3008-1"
         style="fill:#ffffff;fill-opacity:1;stroke:none;display:inline"
         sodipodi:type="arc" /></clipPath><clipPath
       id="clipPath3006"
       clipPathUnits="userSpaceOnUse"><path
         inkscape:export-ydpi="90"
         inkscape:export-xdpi="90"
         transform="matrix(1.2020779,0,0,1.2020779,-93.20363,-75.172465)"
         d="m 483,275.5 a 192.5,192.5 0 1 1 -385,0 192.5,192.5 0 1 1 385,0 z"
         sodipodi:ry="192.5"
         sodipodi:rx="192.5"
         sodipodi:cy="275.5"
         sodipodi:cx="290.5"
         id="path3008"
         style="fill:#ffffff;fill-opacity:1;stroke:none;display:inline"
         sodipodi:type="arc" /></clipPath><mask
       id="mask3818-4"
       maskUnits="userSpaceOnUse"><path
         sodipodi:type="arc"
         style="fill:#ffffff;fill-opacity:1;stroke:none;display:inline"
         id="path3820-9"
         sodipodi:cx="290.5"
         sodipodi:cy="275.5"
         sodipodi:rx="192.5"
         sodipodi:ry="192.5"
         d="m 483,275.5 a 192.5,192.5 0 1 1 -385,0 192.5,192.5 0 1 1 385,0 z"
         transform="matrix(1.2020779,0,0,1.2020779,-93.20363,-75.172466)"
         inkscape:export-xdpi="90"
         inkscape:export-ydpi="90" /></mask><clipPath
       id="clipPath3006-9-8"
       clipPathUnits="userSpaceOnUse"><path
         inkscape:export-ydpi="90"
         inkscape:export-xdpi="90"
         transform="matrix(1.2020779,0,0,1.2020779,-93.20363,-75.172465)"
         d="m 483,275.5 a 192.5,192.5 0 1 1 -385,0 192.5,192.5 0 1 1 385,0 z"
         sodipodi:ry="192.5"
         sodipodi:rx="192.5"
         sodipodi:cy="275.5"
         sodipodi:cx="290.5"
         id="path3008-1-1"
         style="fill:#ffffff;fill-opacity:1;stroke:none;display:inline"
         sodipodi:type="arc" /></clipPath><mask
       id="mask3818-1"
       maskUnits="userSpaceOnUse"><path
         sodipodi:type="arc"
         style="fill:#ffffff;fill-opacity:1;stroke:none;display:inline"
         id="path3820-5"
         sodipodi:cx="290.5"
         sodipodi:cy="275.5"
         sodipodi:rx="192.5"
         sodipodi:ry="192.5"
         d="m 483,275.5 a 192.5,192.5 0 1 1 -385,0 192.5,192.5 0 1 1 385,0 z"
         transform="matrix(1.2020779,0,0,1.2020779,-93.20363,-75.172466)"
         inkscape:export-xdpi="90"
         inkscape:export-ydpi="90" /></mask><clipPath
       clipPathUnits="userSpaceOnUse"
       id="clipPath3929-5"><path
         id="path3931-6"
         d="m 0,0 0,1024 1024,0 L 1024,0 0,0 z m 278.4375,333.84375 119.78125,0 c 9.83697,42.31453 19.85954,84.58596 29.9375,126.84375 9.86978,-42.28798 20.05132,-84.50237 29.6875,-126.84375 l 108.90625,0 c 9.63586,42.34141 19.8178,84.55578 29.6875,126.84375 10.07827,-42.25772 20.10031,-84.52927 29.9375,-126.84375 l 119.1875,0 c -26.26221,110.73099 -52.49625,221.46929 -78.28125,332.3125 l -122.8125,0 c -10.59439,-45.55681 -21.46638,-91.04874 -32.375,-136.53125 -10.66279,45.51136 -21.5615,90.96897 -32,136.53125 l -122.8125,0 c -25.71418,-110.03502 -52.0286,-219.92873 -78.25,-329.84375 l -0.59375,-2.46875 z"
         style="fill:#ff3232;fill-opacity:1;stroke:none"
         inkscape:connector-curvature="0" /></clipPath><clipPath
       clipPathUnits="userSpaceOnUse"
       id="clipPath3934-2"><path
         inkscape:connector-curvature="0"
         style="fill:#ff3232;fill-opacity:1;stroke:none"
         d="m 0,0 0,1024 1024,0 L 1024,0 0,0 z m 278.4375,333.84375 119.78125,0 c 9.83697,42.31453 19.85954,84.58596 29.9375,126.84375 9.86978,-42.28798 20.05132,-84.50237 29.6875,-126.84375 l 108.90625,0 c 9.63586,42.34141 19.8178,84.55578 29.6875,126.84375 10.07827,-42.25772 20.10031,-84.52927 29.9375,-126.84375 l 119.1875,0 c -26.26221,110.73099 -52.49625,221.46929 -78.28125,332.3125 l -122.8125,0 c -10.59439,-45.55681 -21.46638,-91.04874 -32.375,-136.53125 -10.66279,45.51136 -21.5615,90.96897 -32,136.53125 l -122.8125,0 c -25.71418,-110.03502 -52.0286,-219.92873 -78.25,-329.84375 l -0.59375,-2.46875 z"
         id="path3936-1" /></clipPath><mask
       id="mask3818-2-0"
       maskUnits="userSpaceOnUse"><path
         sodipodi:type="arc"
         style="fill:#ffffff;fill-opacity:1;stroke:none;display:inline"
         id="path3820-2-2-6"
         sodipodi:cx="290.5"
         sodipodi:cy="275.5"
         sodipodi:rx="192.5"
         sodipodi:ry="192.5"
         d="m 483,275.5 a 192.5,192.5 0 1 1 -385,0 192.5,192.5 0 1 1 385,0 z"
         transform="matrix(1.2020779,0,0,1.2020779,-93.20363,-75.172466)"
         inkscape:export-xdpi="90"
         inkscape:export-ydpi="90" /></mask><mask
       id="mask3818-0-4"
       maskUnits="userSpaceOnUse"><path
         sodipodi:type="arc"
         style="fill:#ffffff;fill-opacity:1;stroke:none;display:inline"
         id="path3820-8-9"
         sodipodi:cx="290.5"
         sodipodi:cy="275.5"
         sodipodi:rx="192.5"
         sodipodi:ry="192.5"
         d="m 483,275.5 a 192.5,192.5 0 1 1 -385,0 192.5,192.5 0 1 1 385,0 z"
         transform="matrix(1.2020779,0,0,1.2020779,-93.20363,-75.172466)"
         inkscape:export-xdpi="90"
         inkscape:export-ydpi="90" /></mask><clipPath
       clipPathUnits="userSpaceOnUse"
       id="clipPath3006-9-88"><path
         sodipodi:type="arc"
         style="fill:#ffffff;fill-opacity:1;stroke:none;display:inline"
         id="path3008-1-8"
         sodipodi:cx="290.5"
         sodipodi:cy="275.5"
         sodipodi:rx="192.5"
         sodipodi:ry="192.5"
         d="m 483,275.5 a 192.5,192.5 0 1 1 -385,0 192.5,192.5 0 1 1 385,0 z"
         transform="matrix(1.2020779,0,0,1.2020779,-93.20363,-75.172465)"
         inkscape:export-xdpi="90"
         inkscape:export-ydpi="90" /></clipPath><clipPath
       clipPathUnits="userSpaceOnUse"
       id="clipPath3006-1"><path
         sodipodi:type="arc"
         style="fill:#ffffff;fill-opacity:1;stroke:none;display:inline"
         id="path3008-4"
         sodipodi:cx="290.5"
         sodipodi:cy="275.5"
         sodipodi:rx="192.5"
         sodipodi:ry="192.5"
         d="m 483,275.5 a 192.5,192.5 0 1 1 -385,0 192.5,192.5 0 1 1 385,0 z"
         transform="matrix(1.2020779,0,0,1.2020779,-93.20363,-75.172465)"
         inkscape:export-xdpi="90"
         inkscape:export-ydpi="90" /></clipPath><mask
       maskUnits="userSpaceOnUse"
       id="mask3818-4-1"><path
         inkscape:export-ydpi="90"
         inkscape:export-xdpi="90"
         transform="matrix(1.2020779,0,0,1.2020779,-93.20363,-75.172466)"
         d="m 483,275.5 a 192.5,192.5 0 1 1 -385,0 192.5,192.5 0 1 1 385,0 z"
         sodipodi:ry="192.5"
         sodipodi:rx="192.5"
         sodipodi:cy="275.5"
         sodipodi:cx="290.5"
         id="path3820-9-1"
         style="fill:#ffffff;fill-opacity:1;stroke:none;display:inline"
         sodipodi:type="arc" /></mask><clipPath
       clipPathUnits="userSpaceOnUse"
       id="clipPath3006-9-8-9"><path
         sodipodi:type="arc"
         style="fill:#ffffff;fill-opacity:1;stroke:none;display:inline"
         id="path3008-1-1-2"
         sodipodi:cx="290.5"
         sodipodi:cy="275.5"
         sodipodi:rx="192.5"
         sodipodi:ry="192.5"
         d="m 483,275.5 a 192.5,192.5 0 1 1 -385,0 192.5,192.5 0 1 1 385,0 z"
         transform="matrix(1.2020779,0,0,1.2020779,-93.20363,-75.172465)"
         inkscape:export-xdpi="90"
         inkscape:export-ydpi="90" /></clipPath></defs><sodipodi:namedview
     id="namedview1"
     pagecolor="#ffffff"
     bordercolor="#000000"
     borderopacity="0.25"
     inkscape:showpageshadow="2"
     inkscape:pageopacity="0.0"
     inkscape:pagecheckerboard="0"
     inkscape:deskcolor="#d1d1d1"
     inkscape:zoom="0.5491984"
     inkscape:cx="918.61156"
     inkscape:cy="522.57982"
     inkscape:window-width="1920"
     inkscape:window-height="1027"
     inkscape:window-x="1440"
     inkscape:window-y="25"
     inkscape:window-maximized="1"
     inkscape:current-layer="svg1" /><rect
     x="0"
     y="0"
     width="1920"
     height="1080"
     fill="#840"
     id="rect1"
     inkscape:label="background"
     style="fill:#663311;fill-opacity:1" /><path
     id="path4391"
     style="color:#000000;display:inline;overflow:visible;visibility:visible;fill:#442200;fill-opacity:1;fill-rule:nonzero;stroke:none;stroke-width:0.156262;marker:none;enable-background:accumulate"
     d="m 326.7108,751.50412 c -32.48731,0.12339 -64.9261,12.38524 -89.77796,36.75092 l 16.24254,16.18922 c 40.68539,-39.71904 106.07915,-39.92075 147.00683,-0.40588 l 16.59031,-16.46596 c -25.04048,-24.17617 -57.57433,-36.19168 -90.06172,-36.0683 z m 0.0276,34.8322 c -23.55816,0.0895 -47.07707,8.98118 -65.09842,26.64994 l 16.37071,16.31837 c 27.01485,-26.45197 70.49611,-26.60867 97.7026,-0.34131 l 16.33404,-16.47519 C 373.88917,794.95679 350.29665,786.24684 326.7384,786.33632 Z m -0.0365,34.68459 c -14.66693,0.0557 -29.31803,5.59485 -40.5378,16.59511 l 15.64776,15.58962 c 13.8158,-13.52588 36.05009,-13.59881 49.9631,-0.16605 l 15.58376,-15.73721 c -11.30487,-10.91471 -25.98979,-16.33717 -40.65673,-16.28147 z m 1.78274,34.06021 a 22.986687,23.172262 0 0 0 -17.87431,6.74781 22.986687,23.172262 0 0 0 0.0169,32.75319 l 16.25402,-16.38524 -16.18708,16.45328 a 22.986687,23.172262 0 0 0 32.49149,-0.11877 22.986687,23.172262 0 0 0 -0.0837,-32.75377 22.986687,23.172262 0 0 0 -14.61718,-6.6965 z"
     inkscape:label="wifi" /><path
     id="path1"
     d="m 490.19246,448.49351 c -5.80377,0.45676 -10.16718,5.52205 -9.70953,11.33699 l 2.81541,35.77314 c 0.45764,5.81493 5.55971,10.13526 11.36348,9.67849 l 181.43836,-14.2795 c 5.79267,-0.4559 10.15198,-5.52086 9.69434,-11.33579 l -2.81541,-35.77314 c -0.45764,-5.81494 -5.56309,-10.13501 -11.34829,-9.6797 z m 9.37897,11.28172 c 3.59301,-0.28278 6.71544,2.39472 6.99704,5.97286 0.28278,3.593 -2.38326,6.71454 -5.97627,6.99731 -3.58563,0.2822 -6.71994,-2.38658 -7.00243,-5.97586 -0.2816,-3.57814 2.39602,-6.71212 5.98166,-6.99431 z m 111.30724,7.79367 45.83824,-3.60755 1.19816,15.22401 v 0 l -45.83485,3.60729 z m -115.76212,43.49113 c -5.80377,0.45677 -10.16651,5.53052 -9.70886,11.34546 l 2.81514,35.76974 c 0.45706,5.80752 5.55998,10.13868 11.36375,9.68191 l 181.43836,-14.27951 c 5.79267,-0.45589 10.15113,-5.53168 9.69407,-11.33919 l -2.81514,-35.76974 c -0.45765,-5.81494 -5.56376,-10.14349 -11.34896,-9.68818 z m 9.3787,11.27833 c 3.59301,-0.28277 6.71638,2.40661 6.99798,5.98474 0.28307,3.59671 -2.38326,6.71451 -5.97627,6.99729 -3.58563,0.28219 -6.71907,-2.37542 -7.00243,-5.97585 -0.28131,-3.57442 2.39509,-6.72398 5.98072,-7.00618 z m 111.30765,7.79876 45.83824,-3.60754 1.19829,15.22571 v 0 l -45.83485,3.60728 z m -115.76185,43.49452 c -5.80378,0.45677 -10.16662,5.52916 -9.70927,11.34039 l 2.81528,35.77144 c 0.45735,5.81121 5.56024,10.14205 11.36402,9.68529 l 181.43835,-14.27951 c 5.79267,-0.45589 10.15116,-5.53135 9.69381,-11.34257 l -2.81528,-35.77144 c -0.45735,-5.81123 -5.56336,-10.13841 -11.34856,-9.6831 z m 9.37923,11.28513 c 3.59301,-0.28278 6.71459,2.3839 6.99678,5.96947 0.28394,3.60787 -2.38313,6.71623 -5.97614,6.99901 -3.58563,0.28219 -6.71861,-2.36969 -7.00256,-5.97757 -0.2819,-3.58185 2.39629,-6.70872 5.98192,-6.99091 z m 111.30645,7.78349 45.83823,-3.60755 1.19843,15.2274 v 0 l -45.83485,3.60728 z"
     inkscape:label="server"
     style="fill:#442200;fill-opacity:1;stroke:none;stroke-width:3.72711" /><path
     fill="none"
     stroke="#ffffff"
     stroke-width="9.47279"
     stroke-miterlimit="10"
     d="m 1608.8895,509.7199 -0.228,-0.018 c 0.7864,-3.03003 1.335,-6.16386 1.5892,-9.39312 2.3419,-29.7566 -19.882,-55.77749 -49.6386,-58.1194 -25.2441,-1.98674 -47.7918,13.7102 -55.4822,36.68391 -4.4283,-4.84213 -10.7596,-7.96678 -17.9577,-8.06061 -12.397,-0.16154 -23.1385,9.09392 -24.8094,21.37879 -0.2983,2.19377 -0.3026,4.35168 -0.045,6.43712 -19.4386,1.28964 -35.4913,17.39281 -35.658,37.76197 -0.1646,20.11425 15.6435,36.7788 35.6964,38.35699 l 140.0728,11.02398 c 20.0875,1.58092 38.2896,-12.48577 41.2179,-32.42145 3.2269,-21.96953 -12.9736,-41.91576 -34.7579,-43.63023 z"
     id="path3"
     inkscape:label="cloud"
     style="stroke:#442200;stroke-width:15.6788;stroke-dasharray:none;stroke-opacity:1" /><path
     id="path4134-2-0"
     style="display:inline;fill:#442200;fill-opacity:1;stroke:none;stroke-width:2.037;stroke-linecap:round;stroke-linejoin:round;stroke-miterlimit:4;stroke-dasharray:none;stroke-opacity:1"
     d="m 276.00184,172.03704 c -3.95237,0.70142 -8.54233,2.71194 -8.66226,6.69041 -26.72912,12.09459 -81.03507,35.51081 -81.03507,35.51081 l 4.98164,23.34658 c -2.1859,1.35123 -3.33323,3.57367 -2.99875,5.68549 0.30858,1.94833 1.86241,3.69818 4.08514,4.58605 0.20511,7.5712 0.73331,25.83904 1.62174,36.94816 5.03932,3.594 8.69004,3.53201 14.71835,1.30306 -5.08644,-16.2431 -7.51011,-31.2375 -8.52045,-38.80913 2.13083,-1.22808 3.47843,-3.31793 3.08845,-5.78021 -0.35365,-2.23281 -1.98984,-3.84195 -4.10745,-4.64052 l -1.39968,-18.66233 c 0,0 49.42508,-21.16221 74.13777,-31.74343 2.47312,-1.15924 4.79497,-1.40061 10.08438,-1.78488 4.24604,-0.52759 10.04483,-2.89134 9.5249,-7.46338 -1.67487,-5.09755 -8.70278,-5.89612 -13.87942,-5.40929 -0.52372,0.0486 -1.07468,0.12233 -1.63931,0.22249 z m -1.88555,-57.69448 -144.35874,87.0368 57.70047,18.26528 -1.15351,-5.40636 c 0,0 54.30596,-23.41624 81.03508,-35.51083 0.11992,-3.97844 4.70989,-5.98898 8.66225,-6.69041 0.56465,-0.10007 1.11563,-0.17367 1.63929,-0.22259 5.17663,-0.48686 12.20455,0.3117 13.87942,5.40927 0.51993,4.57202 -5.27886,6.93577 -9.5249,7.46336 -5.28942,0.38427 -7.61126,0.62564 -10.08437,1.78489 -24.71267,10.5812 -74.13777,31.74345 -74.13777,31.74345 l 0.3605,4.80867 17.63368,5.58228 -6.3e-4,-0.004 81.28627,25.73283 68.44616,-49.13723 4.7e-4,0.003 76.29305,-54.77138 z m -57.7485,118.05272 2.8028,55.00313 c 65.05965,32.58057 116.60491,16.87549 160.70372,-25.45297 l -13.77409,-52.95454 -68.44616,49.13721 z"
     inkscape:label="hat" /><path
     id="path2527-7-9"
     style="fill:none;fill-opacity:1;stroke:#442200;stroke-width:14.1828;stroke-linecap:round;stroke-linejoin:round;stroke-dasharray:none;stroke-opacity:1"
     d="m 888.94844,229.57941 v 0 a 74.913128,26.699384 0 0 1 -74.91321,26.69939 74.913128,26.699384 0 0 1 -74.91311,-26.69939 m 149.82632,-40.4114 v 0 a 74.913128,26.699384 0 0 1 -74.91319,26.69939 74.913128,26.699384 0 0 1 -74.91311,-26.69939 m 149.26942,-36.44512 a 74.383613,26.439401 0 0 1 -74.38362,26.43941 74.383613,26.439401 0 0 1 -74.38361,-26.43941 74.383613,26.439401 0 0 1 74.38361,-26.43939 74.383613,26.439401 0 0 1 74.38362,26.43939 z m -74.38363,-26.47152 c -41.08368,0 -74.44307,12.29793 -74.44307,27.44234 v 109.73254 c 0,15.14442 33.35939,27.43314 74.44307,27.43314 41.08368,0 74.44306,-12.28872 74.44306,-27.43314 V 153.69371 h -0.0563 c 0,-15.14441 -33.3031,-27.44234 -74.38679,-27.44234 z"
     inkscape:label="database" /><path
     id="rect918"
     style="fill:none;fill-rule:evenodd;stroke:#442200;stroke-width:13.5214;stroke-linecap:round;stroke-linejoin:round;stroke-dasharray:none;stroke-opacity:1"
     d="m 1504.4616,767.93806 c -1.0745,0.0507 -1.9091,0.73718 -1.8712,1.53934 l 7.3744,156.37448 c 0.038,0.80216 0.9332,1.4071 2.0079,1.35642 l 45.3326,-2.13784 c 1.0745,-0.0507 1.9091,-0.7372 1.8713,-1.53937 l -7.3745,-156.37445 c -0.038,-0.80216 -0.9334,-1.40708 -2.0079,-1.35642 z m 148.2052,28.09973 c -1.0743,0.0506 -1.909,0.73728 -1.8713,1.53935 l 5.7234,121.3617 c 0.038,0.80208 0.9334,1.40707 2.0079,1.35642 l 45.328,-2.1376 c 1.0745,-0.0507 1.9091,-0.73727 1.8711,-1.53936 l -5.7232,-121.36173 c -0.038,-0.80208 -0.9332,-1.4071 -2.0077,-1.35643 z m -71.3842,44.97931 c -1.0776,0.0508 -1.9136,0.73857 -1.8757,1.54299 l 3.7673,79.88729 c 0.038,0.80441 0.9351,1.41128 2.0127,1.36047 l 45.4608,-2.14386 c 1.0777,-0.0508 1.9136,-0.73943 1.8756,-1.54385 l -3.7674,-79.88728 c -0.038,-0.80442 -0.9349,-1.41046 -2.0126,-1.35964 z m -100.9755,-82.75322 8.0224,170.11144 227.872,-10.74615"
     inkscape:label="graph" /><g
     id="g2"
     inkscape:label="laptop"
     transform="matrix(3.827937,0,0,3.827937,426.52788,-761.92973)"
     style="fill:#442200;fill-opacity:1;stroke:#442200;stroke-opacity:1"><path
       id="path10242-2"
       style="fill:#442200;fill-opacity:1;fill-rule:evenodd;stroke:#442200;stroke-width:0.783712;stroke-linecap:butt;stroke-linejoin:miter;stroke-dasharray:none;stroke-opacity:1"
       d="m 161.14047,409.89827 -0.93626,-2.22194 h 5.28697 l 1.14416,2.22194 z m 2.39688,5.68825 h 6.02708 l -2.92909,-5.68825 h -5.49487 z m -7.33069,-2.78258 0.89448,2.78258 h 6.43621 l -1.17251,-2.78258 z m -0.93405,-2.90567 0.93405,2.90567 h 6.15818 l -1.22437,-2.90567 z m -0.71426,-2.22194 h 5.64586 l 0.93626,2.22194 h -5.86786 z m -5.2678,2.22194 -0.48793,-2.22194 h 5.75573 l 0.71426,2.22194 z m 0.63808,2.90567 -0.63808,-2.90567 h 5.98206 l 0.93405,2.90567 z m 0,0 0.61106,2.78258 h 6.56145 l -0.89448,-2.78258 z m -7.00922,-2.90567 0.32286,2.90567 h 6.68636 l -0.63808,-2.90567 z m -0.24689,-2.22194 h 6.1301 l 0.48793,2.22194 h -6.37114 z m -6.27868,2.22194 v 2.90567 h 6.84843 l -0.32286,-2.90567 z m 0,-2.22194 h 6.27868 l 0.24689,2.22194 h -6.52557 z m -5.55065,2.22194 0.21,-2.22194 h 5.34065 v 2.22194 z m -0.27462,2.90567 h 5.82527 v -2.90567 h -5.55065 z m -5.26262,-2.90567 0.4195,-2.22194 h 5.32774 l -0.21,2.22194 z m -0.54858,2.90567 0.54858,-2.90567 h 5.53724 l -0.27462,2.90567 z m -6.4628,2.78258 0.78182,-2.78258 h 30.85224 l 0.61106,2.78258 z m 1.59823,-5.68825 -0.81641,2.90567 h 5.68098 l 0.54858,-2.90567 z m 0.62431,-2.22194 h 5.20834 l -0.4195,2.22194 h -5.41315 z m -5.8345,2.22194 0.82143,-2.22194 h 5.01307 l -0.62431,2.22194 z m -1.07419,2.90567 1.07419,-2.90567 h 5.21019 l -0.81641,2.90567 z m -1.02868,2.78258 h 5.71483 l 0.78182,-2.78258 h -5.46797 z m -4.38131,-2.78258 -1.27293,2.78258 h 5.65424 l 1.02868,-2.78258 z m 1.32924,-2.90567 -1.32924,2.90567 h 5.40999 l 1.07419,-2.90567 z m 1.01645,-2.22194 h 4.95992 l -0.82143,2.22194 h -5.15494 z m -5.9539,2.22194 1.20326,-2.22194 h 4.75064 l -1.01645,2.22194 z m -1.57353,2.90567 1.57353,-2.90567 h 4.93745 l -1.32924,2.90567 z m -1.50687,2.78258 1.50687,-2.78258 h 5.18174 l -1.27293,2.78258 z m 1.7898,-9.85895 h 63.9646 c 1.108,0 1.78047,1.04558 2.34327,2 l 5.65673,9.59292 c 0.5628,0.95442 -0.892,2 -2,2 h -75.9646 c -1.108,0 -2.58755,-1.06061 -2,-2 l 6,-9.59292 c 0.58755,-0.93939 0.892,-2 2,-2 z" /><path
       id="rect10127-7"
       style="opacity:1;fill:#442200;fill-opacity:1;stroke:#442200;stroke-width:0.783712;stroke-miterlimit:4;stroke-dasharray:none;stroke-opacity:1"
       d="m 103.62335,361.19474 c -1.108,0 -2.0001,0.8921 -2.0001,2.0001 v 38.72078 c 0,1.108 0.8921,1.99959 2.0001,1.99959 h 62.34643 c 1.10799,0 2.00009,-0.89159 2.00009,-1.99959 v -38.72078 c 0,-1.108 -0.8921,-2.0001 -2.00009,-2.0001 z m 3.55986,3.88387 h 55.22619 c 1.108,0 2.00009,0.8921 2.00009,2.0001 v 30.62956 c 0,1.108 -0.89209,1.99959 -2.00009,1.99959 h -55.22619 c -1.10799,0 -2.00009,-0.89159 -2.00009,-1.99959 v -30.62956 c 0,-1.108 0.8921,-2.0001 2.00009,-2.0001 z" /></g><path
     id="rect2-0"
     style="fill:#442200;fill-opacity:1;stroke:none;stroke-width:0;stroke-dasharray:none;stroke-opacity:1"
     d="m 1175.2055,154.44554 a 14.361001,14.361001 0 0 0 -16.4309,11.93762 l -31.4517,198.57872 a 14.361001,14.361001 0 0 0 11.9377,16.43077 l 141.8418,22.46555 a 14.361001,14.361001 0 0 0 16.4309,-11.93764 l 31.4518,-198.57871 a 14.361001,14.361001 0 0 0 -11.9378,-16.43077 z m 3.7222,22.39956 127.6577,20.21898 -29.2052,184.39453 -127.6577,-20.21899 z m 34.1306,197.61679 a 7.180501,7.180501 0 0 1 5.9689,8.21537 7.180501,7.180501 0 0 1 -8.2155,5.96882 7.180501,7.180501 0 0 1 -5.9687,-8.21537 7.180501,7.180501 0 0 1 8.2153,-5.96882 z"
     inkscape:label="ipad" /><path
     id="path244"
     style="fill:#442200;fill-opacity:1;stroke:none;stroke-width:0;stroke-dasharray:none;stroke-opacity:1"
     inkscape:connector-curvature="0"
     d="m 1694.9718,115.11056 c -23.8808,-1.1729 -46.7861,7.01802 -64.488,23.07081 -17.7288,16.0697 -28.1242,38.06316 -29.2967,61.92829 -1.1729,23.88191 7.0178,46.78827 23.0876,64.50029 16.044,17.71089 38.0363,28.10742 61.9171,29.27987 49.3055,2.42164 91.3547,-35.70932 93.7757,-84.99911 2.4208,-49.29091 -35.6903,-91.35918 -84.9957,-93.78015 z m 70.7317,93.07982 c -0.4106,8.35581 -2.1946,16.31917 -5.0778,23.6906 -6.004,-0.78201 -11.9292,-1.774 -17.7747,-2.99265 5.9968,-14.55939 8.0455,-30.51944 5.7729,-46.54439 -2.1657,-15.24294 -8.1019,-29.06395 -16.6962,-40.6318 21.4565,14.17342 35.1264,38.98165 33.7761,66.47824 z m -57.4041,-62.69911 c -14.7093,16.89309 -27.2628,35.66904 -37.2252,55.96536 -8.4263,-4.88378 -16.5385,-10.25657 -24.3037,-16.06522 6.3346,-12.03884 15.8314,-22.16239 27.7729,-29.3358 10.6126,-6.3932 22.1814,-9.81623 33.756,-10.564 z m -43.1658,69.02451 c -6.3532,15.02925 -11.3329,30.81031 -14.7439,47.18095 -0.5247,-0.79543 -1.0405,-1.60664 -1.5304,-2.42556 -10.3588,-17.21753 -13.3824,-37.4512 -8.537,-56.92301 0.2685,-1.12356 0.5862,-2.19341 0.9062,-3.31429 7.6651,5.59005 15.6412,10.75956 23.9054,15.48123 z m 5.466,54.89136 c -2.4358,0.35017 -4.8642,0.54707 -7.2797,0.65894 3.1241,-16.97476 8.002,-33.29058 14.4554,-48.78524 13.8892,6.9387 28.4788,12.66311 43.6647,17.03294 -0.4218,0.57727 -0.8447,1.19773 -1.2845,1.79156 -12.0792,16.0641 -29.6648,26.45727 -49.5561,29.30113 z m 13.0625,-61.14405 c 10.027,-20.57601 22.8695,-39.4918 38.0218,-56.34573 6.5563,9.3732 11.0773,20.33883 12.7917,32.4146 2.0186,14.23607 -0.022,28.39158 -5.7405,41.18782 -15.7217,-4.25941 -30.8025,-10.07701 -45.0732,-17.25669 z m -43.5886,-59.48158 c 14.8849,-13.50776 34.1274,-20.39142 54.1977,-19.4058 4.5359,0.22263 8.965,0.87598 13.2415,1.85533 -13.8367,0.87598 -27.6599,4.949 -40.3331,12.57473 -13.4127,8.0674 -24.2354,19.2626 -31.7322,32.52647 -3.4793,-2.94007 -6.8777,-5.96147 -10.2019,-9.09922 3.8901,-6.81732 8.8537,-13.04348 14.8279,-18.45039 z m -24.6136,52.0296 c 0.3356,-6.8295 1.5926,-13.45965 3.6724,-19.78505 3.2969,2.99959 6.6663,5.91706 10.1162,8.76181 -1.0763,2.95551 -2.0124,5.99503 -2.7978,9.1103 -3.8341,15.41858 -3.4987,31.21194 0.7619,46.09688 -8.3833,-13.06921 -12.5289,-28.36697 -11.7525,-44.18382 z m 73.3954,78.86054 c 16.9289,-5.71546 31.7591,-16.37176 42.7239,-30.98708 1.6094,-2.14318 3.1195,-4.35092 4.5218,-6.62399 5.8083,1.28533 11.6685,2.37655 17.6158,3.28408 -13.7942,21.23719 -37.9289,34.96535 -64.8617,34.32654 z"
     inkscape:label="globe" /></svg>
